<svg width="33" height="48" viewBox="0 0 33 48" fill="none" xmlns="http://www.w3.org/2000/svg">
<path d="M6.99999 43.15L6.36999 42.39C3.29914 38.6959 1.32289 34.2163 0.664621 29.4578C0.00635415 24.6993 0.69232 19.8515 2.64498 15.4625C4.59765 11.0734 7.73914 7.31806 11.7144 4.62094C15.6896 1.92382 20.34 0.392473 25.14 0.199997H26.14L26.78 0.960007C29.9804 4.80938 31.9879 9.50904 32.5563 14.4827C33.1248 19.4564 32.2294 24.4878 29.98 28.96V28.96C27.915 33.0725 24.7846 36.5557 20.915 39.0463C17.0454 41.5369 12.5784 42.9437 7.97999 43.12L6.99999 43.15ZM24.3 4.25999C20.4256 4.59225 16.7113 5.9576 13.5441 8.21373C10.377 10.4699 7.87288 13.5342 6.29292 17.0873C4.71295 20.6405 4.11492 24.5524 4.56115 28.4153C5.00738 32.2782 6.48155 35.9507 8.83 39.05C12.7044 38.7177 16.4187 37.3524 19.5859 35.0963C22.753 32.8401 25.2571 29.7758 26.8371 26.2227C28.417 22.6695 29.0151 18.7576 28.5688 14.8947C28.1226 11.0318 26.6484 7.35933 24.3 4.25999V4.25999Z" fill="#91CA9D"/>
<path d="M6.02328 48L3 46.4863L9.4446 33.7545L23.9005 1L27 2.34551L12.4933 35.2262L6.02328 48Z" fill="#91CA9D"/>
<path d="M29.6784 20.0281L14.0539 23.6554L14.9585 27.5518L30.583 23.9245L29.6784 20.0281Z" fill="#91CA9D"/>
<path d="M26.6852 28.0293L11.0608 31.6566L11.9653 35.553L27.5898 31.9257L26.6852 28.0293Z" fill="#91CA9D"/>
<path d="M29.3185 11.8374L17.8936 16.0591L19.28 19.8112L30.7049 15.5895L29.3185 11.8374Z" fill="#91CA9D"/>
</svg>
