<svg width="35" height="58" viewBox="0 0 35 58" fill="none" xmlns="http://www.w3.org/2000/svg">
<path d="M8.99999 43.15L8.36999 42.39C5.29914 38.6959 3.32289 34.2163 2.66462 29.4578C2.00635 24.6993 2.69232 19.8515 4.64498 15.4625C6.59765 11.0734 9.73914 7.31806 13.7144 4.62094C17.6896 1.92382 22.34 0.392473 27.14 0.199997H28.14L28.78 0.960007C31.9804 4.80938 33.9879 9.50904 34.5563 14.4827C35.1248 19.4564 34.2294 24.4878 31.98 28.96V28.96C29.915 33.0725 26.7846 36.5557 22.915 39.0463C19.0454 41.5369 14.5784 42.9437 9.97999 43.12L8.99999 43.15ZM26.3 4.25999C22.4256 4.59225 18.7113 5.9576 15.5441 8.21373C12.377 10.4699 9.87288 13.5342 8.29292 17.0873C6.71295 20.6405 6.11492 24.5524 6.56115 28.4153C7.00738 32.2782 8.48155 35.9507 10.83 39.05C14.7044 38.7177 18.4187 37.3524 21.5859 35.0963C24.753 32.8401 27.2571 29.7758 28.8371 26.2227C30.417 22.6695 31.0151 18.7576 30.5688 14.8947C30.1226 11.0318 28.6484 7.35933 26.3 4.25999V4.25999Z" fill="#91CA9D"/>
<path d="M4.28 57.29L0.710007 55.49L8.32001 40.35L25.39 1.39999L29.05 3L11.92 42.1L4.28 57.29Z" fill="#91CA9D"/>
<path d="M31.6784 20.0281L16.0539 23.6554L16.9585 27.5518L32.583 23.9245L31.6784 20.0281Z" fill="#91CA9D"/>
<path d="M28.6852 28.0293L13.0608 31.6566L13.9653 35.553L29.5898 31.9257L28.6852 28.0293Z" fill="#91CA9D"/>
<path d="M31.3185 11.8374L19.8936 16.0591L21.28 19.8112L32.7049 15.5895L31.3185 11.8374Z" fill="#91CA9D"/>
</svg>
