<svg width="124" height="16" viewBox="0 0 124 16" fill="none" xmlns="http://www.w3.org/2000/svg">
<path d="M0.264191 15V0.454547H6.08805C7.15813 0.454547 8.05065 0.613165 8.76561 0.9304C9.48057 1.24763 10.018 1.68798 10.3778 2.25142C10.7377 2.81013 10.9176 3.45407 10.9176 4.18324C10.9176 4.75142 10.804 5.25095 10.5767 5.68182C10.3494 6.10796 10.0369 6.45834 9.63919 6.73296C9.2462 7.00284 8.79639 7.1946 8.28976 7.30824V7.45029C8.84374 7.47396 9.3622 7.63021 9.84516 7.91904C10.3328 8.20786 10.7282 8.61269 11.0312 9.13352C11.3343 9.64962 11.4858 10.2652 11.4858 10.9801C11.4858 11.7519 11.294 12.4408 10.9105 13.0469C10.5317 13.6482 9.97063 14.1241 9.22726 14.4744C8.48389 14.8248 7.56769 15 6.47868 15H0.264191ZM3.33947 12.4858H5.84658C6.70358 12.4858 7.32858 12.3224 7.72158 11.9957C8.11457 11.6643 8.31107 11.224 8.31107 10.6747C8.31107 10.2723 8.214 9.91714 8.01987 9.60938C7.82574 9.30161 7.54876 9.06013 7.18891 8.88494C6.83379 8.70976 6.41002 8.62216 5.9176 8.62216H3.33947V12.4858ZM3.33947 6.5412H5.6193C6.04071 6.5412 6.41476 6.46781 6.74146 6.32102C7.0729 6.16951 7.33332 5.95644 7.52271 5.68182C7.71684 5.4072 7.81391 5.07813 7.81391 4.6946C7.81391 4.16904 7.62688 3.74527 7.25283 3.4233C6.88351 3.10133 6.35794 2.94034 5.67612 2.94034H3.33947V6.5412Z" fill="black"/>
<path d="M13.4868 15V0.454547H16.5621V12.4645H22.7979V15H13.4868Z" fill="black"/>
<path d="M37.6346 7.72727C37.6346 9.31345 37.3339 10.6629 36.7326 11.7756C36.136 12.8883 35.3216 13.7382 34.2894 14.3253C33.2619 14.9077 32.1066 15.1989 30.8235 15.1989C29.5309 15.1989 28.3708 14.9053 27.3434 14.3182C26.3159 13.7311 25.5039 12.8812 24.9073 11.7685C24.3107 10.6558 24.0124 9.30871 24.0124 7.72727C24.0124 6.1411 24.3107 4.79167 24.9073 3.67898C25.5039 2.56629 26.3159 1.71875 27.3434 1.13637C28.3708 0.549244 29.5309 0.255683 30.8235 0.255683C32.1066 0.255683 33.2619 0.549244 34.2894 1.13637C35.3216 1.71875 36.136 2.56629 36.7326 3.67898C37.3339 4.79167 37.6346 6.1411 37.6346 7.72727ZM34.5167 7.72727C34.5167 6.69981 34.3628 5.83334 34.055 5.12784C33.752 4.42235 33.3235 3.88731 32.7695 3.52273C32.2155 3.15815 31.5669 2.97585 30.8235 2.97585C30.0801 2.97585 29.4314 3.15815 28.8775 3.52273C28.3235 3.88731 27.8926 4.42235 27.5849 5.12784C27.2818 5.83334 27.1303 6.69981 27.1303 7.72727C27.1303 8.75474 27.2818 9.62121 27.5849 10.3267C27.8926 11.0322 28.3235 11.5672 28.8775 11.9318C29.4314 12.2964 30.0801 12.4787 30.8235 12.4787C31.5669 12.4787 32.2155 12.2964 32.7695 11.9318C33.3235 11.5672 33.752 11.0322 34.055 10.3267C34.3628 9.62121 34.5167 8.75474 34.5167 7.72727Z" fill="black"/>
<path d="M49.5575 5.15625C49.4581 4.81061 49.3184 4.50521 49.1385 4.24006C48.9586 3.97017 48.7384 3.7429 48.478 3.55824C48.2223 3.36885 47.9287 3.22443 47.5973 3.125C47.2706 3.02557 46.9084 2.97585 46.5106 2.97585C45.7673 2.97585 45.1139 3.16051 44.5504 3.52983C43.9917 3.89915 43.5561 4.43655 43.2436 5.14205C42.9311 5.8428 42.7748 6.69981 42.7748 7.71307C42.7748 8.72633 42.9287 9.58807 43.2365 10.2983C43.5443 11.0085 43.9799 11.5507 44.5433 11.9247C45.1068 12.294 45.772 12.4787 46.539 12.4787C47.2351 12.4787 47.8293 12.3556 48.3217 12.1094C48.8189 11.8584 49.1977 11.5057 49.4581 11.0511C49.7232 10.5966 49.8558 10.0592 49.8558 9.43892L50.4808 9.53125H46.7308V7.21591H52.8175V9.0483C52.8175 10.3267 52.5476 11.4252 52.0078 12.3438C51.468 13.2576 50.7247 13.9631 49.7777 14.4602C48.8307 14.9527 47.7464 15.1989 46.5248 15.1989C45.1612 15.1989 43.9633 14.8982 42.9311 14.2969C41.8989 13.6908 41.094 12.8314 40.5163 11.7188C39.9434 10.6013 39.6569 9.27557 39.6569 7.74148C39.6569 6.5625 39.8274 5.51137 40.1683 4.58807C40.514 3.66004 40.9969 2.87406 41.6172 2.23012C42.2374 1.58618 42.9595 1.09612 43.7834 0.759945C44.6072 0.423771 45.4997 0.255683 46.4609 0.255683C47.2848 0.255683 48.0518 0.376422 48.7621 0.6179C49.4723 0.854642 50.102 1.19082 50.6513 1.62642C51.2052 2.06203 51.6574 2.58049 52.0078 3.18182C52.3582 3.77841 52.5831 4.43655 52.6825 5.15625H49.5575Z" fill="black"/>
<path d="M70.4879 5C70.3553 4.51705 70.1612 4.06487 69.9055 3.64347C69.6498 3.21733 69.3326 2.84565 68.9538 2.52841C68.5798 2.20644 68.1465 1.95549 67.6541 1.77557C67.1664 1.59565 66.6219 1.50568 66.0206 1.50568C65.0736 1.50568 64.2261 1.7519 63.478 2.24432C62.7299 2.73674 62.138 3.44697 61.7024 4.375C61.2715 5.30303 61.0561 6.42046 61.0561 7.72727C61.0561 9.02936 61.2739 10.1444 61.7095 11.0724C62.1451 12.0005 62.7417 12.7131 63.4993 13.2102C64.2616 13.7027 65.1328 13.9489 66.1129 13.9489C67.0078 13.9489 67.7985 13.75 68.4851 13.3523C69.1716 12.9545 69.7067 12.3864 70.0902 11.6477C70.4784 10.9091 70.6678 10.0308 70.6584 9.01279L71.0845 9.14773H66.4254V7.95455H71.951V9.14773C71.951 10.3883 71.7 11.4607 71.1981 12.3651C70.6962 13.2694 70.0073 13.9678 69.1314 14.4602C68.2554 14.9527 67.2493 15.1989 66.1129 15.1989C64.844 15.1989 63.7337 14.8935 62.7819 14.2827C61.8302 13.6671 61.0892 12.8007 60.5589 11.6832C60.0334 10.5611 59.7706 9.24243 59.7706 7.72727C59.7706 6.58618 59.9221 5.55635 60.2251 4.63779C60.5282 3.71923 60.9567 2.93324 61.5106 2.27983C62.0694 1.62642 62.7299 1.1269 63.4922 0.781252C64.2545 0.430873 65.0973 0.255683 66.0206 0.255683C66.816 0.255683 67.5428 0.381157 68.201 0.632103C68.8639 0.883051 69.4462 1.2287 69.9481 1.66904C70.4548 2.10464 70.8691 2.6089 71.191 3.18182C71.5177 3.75 71.7379 4.35606 71.8515 5H70.4879Z" fill="black"/>
<path d="M87.1729 7.72727C87.1729 9.24243 86.903 10.5611 86.3633 11.6832C85.8235 12.8007 85.0801 13.6671 84.1332 14.2827C83.1909 14.8935 82.1066 15.1989 80.8803 15.1989C79.654 15.1989 78.5673 14.8935 77.6204 14.2827C76.6781 13.6671 75.9371 12.8007 75.3974 11.6832C74.8623 10.5611 74.5948 9.24243 74.5948 7.72727C74.5948 6.21212 74.8623 4.89584 75.3974 3.77841C75.9371 2.65625 76.6805 1.78977 77.6275 1.17898C78.5744 0.563448 79.6587 0.255683 80.8803 0.255683C82.1066 0.255683 83.1909 0.563448 84.1332 1.17898C85.0801 1.78977 85.8235 2.65625 86.3633 3.77841C86.903 4.89584 87.1729 6.21212 87.1729 7.72727ZM85.8803 7.72727C85.8803 6.42519 85.6625 5.31013 85.2269 4.3821C84.7913 3.44934 84.1971 2.73674 83.4442 2.24432C82.6914 1.7519 81.8367 1.50568 80.8803 1.50568C79.9286 1.50568 79.0763 1.7519 78.3235 2.24432C77.5707 2.73674 76.9741 3.44697 76.5337 4.375C76.0981 5.30303 75.8803 6.42046 75.8803 7.72727C75.8803 9.02936 76.0981 10.1444 76.5337 11.0724C76.9693 12.0005 77.5636 12.7131 78.3164 13.2102C79.0692 13.7027 79.9239 13.9489 80.8803 13.9489C81.8367 13.9489 82.6914 13.7027 83.4442 13.2102C84.2018 12.7178 84.7984 12.0076 85.234 11.0795C85.6696 10.1468 85.885 9.02936 85.8803 7.72727Z" fill="black"/>
<path d="M89.7226 15H88.3306L93.6218 0.454547H95.0422L100.333 15H98.9414L94.3817 2.1804H94.2823L89.7226 15ZM90.7241 9.42472H97.94V10.6179H90.7241V9.42472Z" fill="black"/>
<path d="M102.826 15V0.454547H104.154V13.8068H111.086V15H102.826Z" fill="black"/>
<path d="M121.974 4.09091C121.894 3.28125 121.536 2.63731 120.902 2.15909C120.267 1.68087 119.469 1.44176 118.508 1.44176C117.831 1.44176 117.234 1.55777 116.718 1.78977C116.207 2.02178 115.805 2.34375 115.511 2.75568C115.222 3.16288 115.078 3.6269 115.078 4.14773C115.078 4.53125 115.161 4.86743 115.326 5.15625C115.492 5.44508 115.715 5.69366 115.994 5.90199C116.278 6.10559 116.591 6.28078 116.931 6.42756C117.277 6.57434 117.625 6.69744 117.975 6.79688L119.51 7.23722C119.974 7.36506 120.438 7.52841 120.902 7.72727C121.366 7.92614 121.789 8.17708 122.173 8.48011C122.561 8.77841 122.871 9.14536 123.103 9.58097C123.34 10.0118 123.458 10.5303 123.458 11.1364C123.458 11.9129 123.257 12.6113 122.855 13.2315C122.452 13.8518 121.875 14.3442 121.122 14.7088C120.369 15.0687 119.467 15.2486 118.416 15.2486C117.426 15.2486 116.567 15.0852 115.838 14.7585C115.109 14.4271 114.536 13.9702 114.119 13.3878C113.702 12.8054 113.468 12.1307 113.416 11.3636H114.779C114.827 11.9366 115.016 12.4219 115.348 12.8196C115.679 13.2173 116.11 13.5204 116.64 13.7287C117.171 13.9323 117.762 14.0341 118.416 14.0341C119.14 14.0341 119.784 13.9134 120.348 13.6719C120.916 13.4257 121.361 13.0848 121.683 12.6491C122.01 12.2088 122.173 11.6974 122.173 11.1151C122.173 10.6226 122.045 10.2107 121.789 9.87926C121.534 9.54309 121.176 9.26137 120.717 9.03409C120.262 8.80682 119.734 8.60559 119.133 8.4304L117.393 7.91904C116.252 7.57813 115.367 7.10701 114.737 6.50568C114.107 5.90436 113.792 5.13731 113.792 4.20455C113.792 3.4233 114.001 2.73674 114.417 2.14489C114.839 1.5483 115.407 1.08428 116.122 0.752842C116.841 0.416668 117.649 0.248581 118.544 0.248581C119.448 0.248581 120.248 0.414301 120.944 0.745741C121.64 1.07718 122.192 1.53409 122.599 2.11648C123.011 2.69413 123.231 3.35227 123.26 4.09091H121.974Z" fill="black"/>
</svg>
